<svg width="239" height="176" viewBox="0 0 239 176" fill="none" xmlns="http://www.w3.org/2000/svg">
<path d="M1.94922 41.1292C2.14558 36.4164 3.76388 32.2776 5.64755 27.9351C7.9588 22.6069 11.2 16.1733 13.9438 11.0427C14.7282 9.57605 17.3366 3.71921 19.3914 2.29665C20.1585 1.76555 20.3845 2.62873 20.7907 3.24622C21.8145 4.80233 24.7028 9.81558 25.2387 10.7429C29.2655 17.7097 33.3155 32.4696 43.6305 30.2341C52.9573 28.2127 64.4924 18.2773 74.2167 19.7388C80.4562 20.6765 80.1965 32.8508 81.0636 37.3309C81.5166 39.6713 90.8632 30.4361 91.5089 29.9342C95.3398 26.9567 108.387 15.2704 114.149 18.4394C118.149 20.6394 120.764 29.3323 122.745 33.0828C123.121 33.7947 125.022 38.5665 126.943 38.8802C130.787 39.5078 138.783 30.4829 140.887 28.7348C141.977 27.8292 156.889 13.8114 158.979 15.2408C162.824 17.8721 164.459 28.1407 165.776 32.3331C167.355 37.3617 168.374 34.9032 172.572 31.8334C178.04 27.8359 181.103 25.5253 186.866 21.7379C189.231 20.1835 196.194 14.5815 199.86 14.791C204.114 15.0341 203.397 29.644 203.459 32.0333C203.609 37.8721 202.971 42.6445 209.106 45.0774C211.355 45.9691 217.481 46.1691 219.052 48.0761C220.578 49.93 206.84 58.9963 205.758 60.1206C202.749 63.2445 196.759 70.7248 201.359 75.1139C208.62 82.041 223.116 82.3303 232.196 85.6092C246.261 90.6883 221.865 91.9159 220.251 92.1562C218.845 92.3656 184.445 96.2032 193.263 103.101C199.799 108.214 208.107 111.282 213.254 118.145C215.875 121.639 210.056 124.545 208.056 126.591C205.609 129.095 203.613 132.817 206.857 135.687C207.848 136.563 215.181 138.293 213.354 139.435C207.838 142.883 198.919 143.24 194.762 148.681C191.565 152.866 207.326 155.731 208.906 156.177C210.757 156.701 216.788 157.484 218.202 159.526C220.369 162.655 205.204 165.19 204.158 165.473C197.659 167.231 191.015 169.404 185.367 173.17C184.087 174.023 183.375 174.269 181.868 174.269" stroke="#285CC4" stroke-width="3" stroke-linecap="round"/>
</svg>
