<svg width="260" height="155" viewBox="0 0 260 155" fill="none" xmlns="http://www.w3.org/2000/svg">
<path d="M24.2364 153.361C16.8788 149.61 16.6885 147.441 22.3872 140.717C28.0318 134.056 35.9108 130.378 28.5844 122.075C26.7943 120.046 5.23915 100.558 7.44391 99.2352C12.7175 96.071 19.9303 95.4998 25.8356 94.1875C28.9812 93.4884 26.8591 91.1072 25.5358 88.9898C20.9135 81.5941 15.1995 74.9458 10.5425 67.5494C8.16753 63.7774 -0.203843 53.3088 1.89641 48.0582C3.9035 43.0405 15.0291 44.1752 18.439 44.21C29.3055 44.3206 39.8621 45.6834 50.5245 47.5085C55.1856 48.3063 50.5718 41.1544 49.9248 40.0118C45.5 32.1986 39.7619 25.1806 34.9315 17.6219C32.1495 13.2685 30.5335 10.562 30.5335 5.6273C30.5335 -4.18113 39.5123 8.70037 42.4282 11.5247C43.919 12.9687 58.3416 27.3208 61.7195 24.8187C65.5772 21.9611 66.5505 15.5231 69.1162 11.6746C72.6186 6.42095 84.2695 22.7394 85.7587 24.2189C94.1802 32.5858 102.759 41.4889 113.146 30.9159C117.178 26.8122 120.059 22.0672 123.142 17.2721C124.097 15.7857 127.096 9.65567 129.939 8.92583C136.64 7.20527 147.164 20.5487 152.279 23.7691C157.342 26.9572 162.32 27.9829 167.772 25.2185C172.232 22.9571 175.385 19.4356 178.267 15.4229C178.516 15.0769 185.618 3.47144 186.163 3.92807C188.163 5.60339 188.357 8.6619 189.462 11.0249C191.985 16.4195 194.967 22.7047 198.158 27.7174C201.241 32.5599 206.285 39.6873 212.951 39.8119C218.723 39.9198 222.758 31.9368 225.346 28.0172C227.545 24.6867 230.891 15.6434 234.542 13.5238C237.465 11.8266 247.006 23.099 248.635 24.5188C251.806 27.2825 255.037 30.0302 258.131 32.8151" stroke="#285CC4" stroke-width="3" stroke-linecap="round"/>
</svg>
