<svg width="144" height="56" viewBox="0 0 144 56" fill="none" xmlns="http://www.w3.org/2000/svg">
<path d="M80.356 6.78125C59.7992 3.53545 38.1722 2.90859 18.7721 11.5592C13.7382 13.8038 7.91155 16.4763 4.81605 21.3038C2.62413 24.7222 1.9563 28.964 2.00219 32.9558C2.05316 37.3908 3.12847 41.5419 6.55347 44.589C11.7416 49.2047 19.3984 51.0314 26.0428 52.1241C37.6469 54.0325 49.5297 53.6916 61.2444 53.6916C72.5466 53.6916 83.7585 53.6071 94.9919 52.1996C108.323 50.5294 122.961 48.7888 135.274 43.0404C137.458 42.0207 140.849 40.6503 141.506 37.9793C142.529 33.8174 139.876 29.9761 137.086 27.2148C125.868 16.1103 110.204 9.58284 95.3507 5.00606C87.9766 2.73383 80.5134 2.35812 72.8398 2.17332C62.0927 1.9145 51.3335 2.02224 40.5842 2.02224" stroke="#285CC4" stroke-width="3" stroke-linecap="round"/>
</svg>
