<svg width="201" height="81" viewBox="0 0 201 81" fill="none" xmlns="http://www.w3.org/2000/svg">
<path d="M107.917 2.08496C80.897 2.08496 53.7395 3.08564 28.1002 12.5162C14.4325 17.5434 0.0126687 32.0785 2.67083 47.8059C4.24301 57.108 10.1345 66.7126 17.5133 72.5607C27.9654 80.8445 43.098 78.6845 55.5016 78.6845C87.3745 78.6845 119.238 79.0081 151.095 77.9579C165.61 77.4794 178.736 75.7461 189.551 64.9318C198.8 55.6826 201.569 39.4681 195.571 27.7219C187.569 12.0511 166.087 8.45675 150.369 7.89739C131.71 7.23337 112.263 6.55245 93.6976 8.72774C80.8949 10.2278 68.3909 13.5647 55.6054 15.1629" stroke="#285CC4" stroke-width="3" stroke-linecap="round"/>
</svg>
