<svg width="170" height="38" viewBox="0 0 170 38" fill="none" xmlns="http://www.w3.org/2000/svg">
<path d="M1.90723 2.72452C5.99832 11.8099 9.6057 21.4101 14.3718 30.1736C17.9993 36.8435 24.086 26.0324 26.2064 23.0638C30.2217 17.4425 32.4678 10.0285 36.691 4.74945C37.6029 3.60958 47.1435 21.348 47.8957 22.6138C48.2334 23.1822 51.9645 30.5683 54.2405 31.1636C58.0823 32.1683 63.7122 22.2029 65.3551 20.1839C70.7836 13.5127 72.894 12.8734 79.0346 19.329C83.2774 23.7893 86.6371 29.5473 91.0042 33.7735C92.9481 35.6547 105.15 23.8827 106.574 22.7938C112.017 18.6309 114.468 18.1893 118.723 23.7838C120.59 26.2385 125.038 35.6148 128.623 35.9334C135.771 36.5688 146.173 4.38673 150.717 7.58436C152.466 8.81472 158.865 20.8546 161.562 17.484C165.446 12.6288 166.462 7.8741 167.952 1.91455" stroke="#285CC4" stroke-width="3" stroke-linecap="round"/>
</svg>
