<svg width="214" height="51" viewBox="0 0 214 51" fill="none" xmlns="http://www.w3.org/2000/svg">
<path d="M1.76562 46.2838C2.32497 33.2791 3.97437 19.3075 7.39043 6.73014C8.14098 3.96676 8.66942 -0.242095 11.5303 3.44526C17.7679 11.4849 22.4385 20.994 27.5048 29.7694C28.7632 31.9492 35.7629 48.3581 39.3843 49.0287C42.1789 49.5462 44.6539 37.0616 44.9642 35.7992C46.0225 31.4928 46.2011 26.1905 47.9341 22.0746C48.4639 20.8163 49.7167 24.1792 50.319 25.4045C52.849 30.5518 55.8998 35.4686 58.9137 40.344C60.8716 43.5112 62.018 42.4598 63.9535 39.534C65.5815 37.0731 76.0582 12.5993 78.848 13.7949C82.8935 15.5287 85.8559 25.5473 87.4427 29.0044C87.4932 29.1143 92.0013 39.9643 92.5725 38.6791C97.035 28.6385 98.405 17.8994 104.812 8.62008C108.381 3.45159 109.354 10.1469 110.842 13.8849C111.543 15.6473 118.54 36.4175 120.562 35.6642C129.848 32.2045 131.371 19.1558 138.471 13.7949C142.623 10.6598 150.069 36.5238 151.701 38.9041C153.197 41.0878 158.744 23.9824 159.08 23.1546C159.09 23.13 164.135 9.26946 166.28 11.455C169.759 14.9991 172.815 31.5914 179.69 25.7645C182.976 22.9788 197.393 4.16621 201.379 8.93507C205.344 13.6791 206.627 19.4372 212.358 21.9846" stroke="#285CC4" stroke-width="3" stroke-linecap="round"/>
</svg>
