<svg width="267" height="171" viewBox="0 0 267 171" fill="none" xmlns="http://www.w3.org/2000/svg">
<path d="M54.9729 2.04639C39.878 9.15944 25.2476 16.2161 11.647 25.9865C6.64047 29.5832 -4.49552 36.0677 7.32613 38.9493C22.0284 42.5329 37.8821 43.5146 52.8708 45.3722C55.6606 45.718 66.3437 46.9181 70.5632 47.6495C71.8542 47.8732 74.0252 47.6165 73.074 49.4596C69.9868 55.441 62.8345 61.9272 58.8267 66.86C53.7829 73.0676 45.1069 83.9462 40.3752 90.5666C37.7106 94.2947 32.9032 98.0857 33.7187 102.595C35.2337 110.972 71.6721 93.4871 64.3738 107.792C59.4681 117.407 53.5689 126.46 48.3163 135.878C46.5522 139.041 39.6469 147.933 47.7908 147.848C56.6394 147.755 65.7503 144.729 74.3586 143.001C79.2979 142.01 87.017 138.273 89.3066 144.753C91.6496 151.384 92.4776 158.492 94.8537 165.131C99.4697 178.029 106.046 150.149 106.649 148.548C109.465 141.073 112.472 129.33 117.918 122.915C120.472 119.906 124.931 139.552 125.158 140.315C125.532 141.568 127.505 152.124 130.647 152.285C134.821 152.499 143.909 144.093 146.413 142.301C153.787 137.022 160.858 131.207 168.367 126.126C172.58 123.277 173.798 125.849 175.958 129.63C177.478 132.289 182.972 149.858 187.052 147.789C191.142 145.717 207.386 129.152 211.343 134.068C217.947 142.272 219.35 153.847 225.59 162.387C227.754 165.348 235.714 145.763 238.203 143.235C241.522 139.862 242.711 144.424 245.852 143.527C248.593 142.744 251.478 137.463 252.683 135.644C256.877 129.32 260.981 122.906 265.179 116.609" stroke="#285CC4" stroke-width="3" stroke-linecap="round"/>
</svg>
