<svg width="373" height="373" viewBox="0 0 373 373" fill="none" xmlns="http://www.w3.org/2000/svg">
<path fillRule="evenodd" clip-rule="evenodd" d="M123.936 136.531C120.81 167.718 142.651 194.955 171.625 192.18C173.197 180.745 163.512 164.992 154.528 162.654L164.199 181.716C145.876 181.34 132.719 165.315 131.563 144.998C156.39 145.727 179.727 171.063 176.587 195.608C153.164 202.648 133.613 223.727 136.596 255.28C173.698 256.34 185.134 203.242 187.608 202.109C198.054 200.006 191.238 215.685 207.073 236.293C213.985 245.288 227.381 254.837 241.674 255.496C244.854 220.795 223.876 204.563 202.664 194.775C203.223 166.162 220.428 145.977 246.474 144.981C245.744 172.183 220.317 186.581 213.567 182.377L225.354 160.471C218.005 163.282 204.864 180.749 205.518 191.814C228.715 198.734 261.985 166.489 254.261 136.21C198.722 131.88 196.95 191.534 189.97 193.389C179.461 196.183 187.701 134.625 123.936 136.531ZM145.164 243.713C146.258 233.273 150.385 224.257 156.407 217.426C160.346 212.957 168.403 204.286 176.62 205.365C171.802 223.035 162.429 240.967 145.164 243.713ZM201.574 205.418C214.406 203.916 231.951 226.088 234.062 244.305C225.16 242.341 217.432 236.444 212.861 230.184C205.7 220.378 205.813 216.914 201.574 205.418Z" fill="#285CC4"/>
<path fillRule="evenodd" clip-rule="evenodd" d="M190.12 118.352C198.041 118.352 204.463 125.232 204.463 133.719C204.463 142.207 198.041 149.087 190.12 149.087C182.198 149.087 175.777 142.207 175.777 133.719C175.777 125.232 182.198 118.352 190.12 118.352Z" stroke="#285CC4" stroke-width="4" stroke-miterlimit="22.9256" stroke-linecap="round" stroke-linejoin="round"/>
<path d="M340.119 1.39932C348.062 3.51268 353.747 6.79202 359.941 13.0592C370.945 23.9904 375.099 37.8365 371.965 52.7757C369.342 65.383 360.159 77.1886 348.645 82.727L342.815 85.4962V95.4071C342.742 115.156 336.84 128.711 321.828 144.014L314.467 151.52L315.706 156.767C318.111 167.261 318.694 173.237 318.694 186.5C318.694 199.763 318.111 205.739 315.706 216.233L314.467 221.48L321.828 228.986C336.84 244.289 342.742 257.844 342.815 277.593V287.504L348.645 290.273C353.091 292.459 355.787 294.427 360.014 298.654C373.86 312.5 376.921 332.613 367.811 349.957C364.751 355.86 355.86 364.751 349.957 367.811C332.613 376.921 312.5 373.86 298.654 360.014C294.427 355.787 292.459 353.091 290.273 348.645L287.504 342.815H277.593C257.844 342.742 244.289 336.84 228.986 321.828L221.553 314.54L214.046 316.143C194.808 320.079 178.192 320.079 158.954 316.143L151.447 314.54L144.014 321.828C128.711 336.84 115.156 342.742 95.4071 342.815H85.4962L82.727 348.645C80.5408 353.091 78.5732 355.787 74.3465 360.014C60.5004 373.86 40.3871 376.921 23.043 367.811C17.213 364.751 8.39525 355.933 5.18878 349.957C-3.9205 332.759 -0.859782 312.5 12.9863 298.654C17.213 294.427 19.9094 292.459 24.3547 290.273L30.1847 287.504V277.593C30.2575 257.844 36.1604 244.289 51.1725 228.986L58.4599 221.553L56.8567 214.046C52.9214 194.808 52.9214 178.192 56.8567 158.954L58.4599 151.447L51.1725 144.014C40.6786 133.302 35.2859 124.338 31.8608 111.658C30.6948 107.286 30.3304 103.642 30.2575 95.7715L30.1847 85.4962L24.3547 82.727C19.9094 80.5408 17.213 78.5732 12.9863 74.3465C-0.859782 60.5004 -3.9205 40.3871 5.18878 23.043C8.2495 17.1402 17.1402 8.2495 23.043 5.18878C40.3871 -3.9205 60.5004 -0.859782 74.3465 12.9863C78.6461 17.2859 80.5408 19.8365 82.727 24.5005L85.5691 30.4033L92.4922 30.0389C105.172 29.3102 119.31 32.9539 130.314 39.8041C133.375 41.6988 139.35 46.5814 143.723 50.881L151.52 58.5328L156.84 57.2939C167.261 54.8891 173.237 54.3061 186.5 54.3061C199.763 54.3061 205.739 54.8891 216.233 57.2939L221.48 58.5328L228.986 51.1725C244.289 36.1604 257.844 30.2575 277.593 30.1847H287.504L290.273 24.3547C294.062 16.4843 301.86 8.61388 309.658 4.75154C319.496 -0.0581647 330.135 -1.22415 340.119 1.39932ZM319.568 24.2818C311.917 27.9984 307.836 34.7757 307.836 43.6664C307.836 49.8607 309.366 54.0146 313.228 58.4599C319.204 65.1643 330.5 67.2777 338.953 63.1238C350.613 57.3668 354.621 42.8648 347.552 31.7879C341.722 22.6057 329.625 19.3993 319.568 24.2818ZM33.9013 24.2818C26.2495 27.9984 22.1685 34.7757 22.1685 43.6664C22.1685 49.8607 23.6989 54.0146 27.5612 58.4599C33.5369 65.1643 44.8324 67.2777 53.2858 63.1238C64.9457 57.3668 68.9538 42.8648 61.885 31.7879C56.055 22.6057 43.9579 19.3993 33.9013 24.2818ZM263.31 54.2332C257.407 56.2008 249.609 60.9376 246.038 64.6542L243.998 66.7676L251.14 70.8485C273.293 83.4558 289.69 99.9253 302.37 122.225L306.232 129.002L308.346 126.962C312.062 123.464 316.799 115.593 318.767 109.763C320.807 103.569 321.755 94.6784 320.807 89.7229C320.224 86.6622 320.151 86.5894 315.415 84.9861C308.783 82.727 302.953 79.0104 298.071 73.9092C293.115 68.7352 290.2 63.9983 288.014 57.5125C286.556 53.2129 286.192 52.7028 284.006 52.2656C279.196 51.3182 269.285 52.1927 263.31 54.2332ZM89.3586 52.2656C86.7351 52.7757 86.5165 52.9943 84.9861 57.5125C80.6137 70.4113 70.4113 80.6137 57.5854 84.9861C52.9943 86.5165 52.7757 86.7351 52.2656 89.3586C50.2251 100.727 54.8162 115.958 63.1238 125.213L66.6947 129.148L70.6299 122.079C82.5813 100.946 101.383 82.0712 122.152 70.557L129.002 66.7676L126.962 64.6542C124.265 61.8121 116.249 56.638 112.168 55.0348C104.954 52.1927 95.8444 51.0996 89.3586 52.2656ZM163.909 78.1359C143.796 82.3626 125.869 91.7634 111.002 105.828C93.0752 122.808 82.2898 142.557 77.4072 167.188C75.6582 176.298 75.6582 196.702 77.4072 205.812C82.2898 230.443 93.0752 250.192 111.002 267.172C126.452 281.747 145.763 291.512 167.188 295.52C177.026 297.342 196.484 297.415 205.812 295.593C247.714 287.358 280.508 258.208 292.459 218.346C295.884 207.123 296.832 200.127 296.905 186.864C296.905 172.654 295.666 164.565 291.658 152.249C278.977 113.043 244.071 83.1643 203.99 77.2614C201.002 76.8242 197.723 76.3141 196.702 76.1683C191.674 75.2938 171.925 76.4598 163.909 78.1359ZM300.694 253.544C288.451 274.168 271.909 290.419 251.285 302.079L243.852 306.305L247.787 309.876C257.042 318.184 272.273 322.775 283.641 320.734C286.265 320.224 286.484 320.006 288.014 315.488C292.386 302.589 302.589 292.386 315.415 288.014C320.151 286.411 320.224 286.338 320.807 283.277C322.338 275.115 319.423 261.706 314.394 253.909C310.605 247.933 306.524 243.706 305.868 244.872C305.504 245.455 303.245 249.318 300.694 253.544ZM59.3344 252.816C53.6502 261.342 50.5895 274.605 52.1927 283.277C52.7757 286.338 52.8486 286.411 57.5854 288.014C64.217 290.273 70.0469 293.99 74.9295 299.091C79.8849 304.265 82.7999 309.002 84.9861 315.488C86.5165 320.151 86.6622 320.224 89.7229 320.807C94.6784 321.755 103.569 320.807 109.763 318.767C115.593 316.799 123.464 312.062 126.962 308.346L129.002 306.232L122.006 302.297C101.164 290.565 82.4355 271.836 70.7028 250.994L66.7676 243.998L64.6542 246.038C63.4882 247.131 61.0834 250.192 59.3344 252.816ZM319.568 309.949C311.917 313.666 307.836 320.443 307.836 329.334C307.836 335.528 309.366 339.682 313.228 344.127C319.204 350.832 330.5 352.945 338.953 348.791C350.613 343.034 354.621 328.532 347.552 317.455C341.722 308.273 329.625 305.066 319.568 309.949ZM33.9013 309.949C26.2495 313.666 22.1685 320.443 22.1685 329.334C22.1685 335.528 23.6989 339.682 27.5612 344.127C33.5369 350.832 44.8324 352.945 53.2858 348.791C64.9457 343.034 68.9538 328.532 61.885 317.455C56.055 308.273 43.9579 305.066 33.9013 309.949Z" fill="#285CC4"/>
</svg>
